<svg xmlns="http://www.w3.org/2000/svg" xmlns:xlink="http://www.w3.org/1999/xlink" width="34" zoomAndPan="magnify" viewBox="0 0 375 374.999991" height="35" preserveAspectRatio="xMidYMid meet" version="1.0"><defs><clipPath id="e8706268e9"><path d="M 5 1.925781 L 370 1.925781 L 370 373.175781 L 5 373.175781 Z M 5 1.925781 " clip-rule="nonzero"/></clipPath></defs><g clip-path="url(#e8706268e9)"><path fill="#38b6ff" d="M 355.324219 115.292969 C 353.5625 111.117188 351.648438 107.015625 349.585938 102.980469 C 347.519531 98.945312 345.3125 94.988281 342.960938 91.117188 C 340.605469 87.242188 338.113281 83.460938 335.484375 79.769531 C 332.851562 76.082031 330.089844 72.492188 327.195312 69.003906 C 324.300781 65.515625 321.285156 62.136719 318.144531 58.871094 C 315.003906 55.601562 311.746094 52.457031 308.375 49.425781 C 305 46.398438 301.523438 43.496094 297.9375 40.722656 C 294.355469 37.949219 290.671875 35.3125 286.894531 32.808594 C 283.117188 30.304688 279.25 27.941406 275.300781 25.722656 C 271.347656 23.5 267.320312 21.429688 263.21875 19.503906 C 259.113281 17.578125 254.945312 15.804688 250.714844 14.183594 C 246.480469 12.5625 242.191406 11.101562 237.851562 9.796875 C 233.511719 8.488281 229.128906 7.34375 224.707031 6.359375 C 220.28125 5.375 215.828125 4.550781 211.339844 3.894531 C 206.855469 3.234375 202.355469 2.742188 197.832031 2.414062 C 193.3125 2.085938 188.785156 1.921875 184.253906 1.925781 L 5.261719 1.925781 L 161.78125 187.632812 L 302.550781 74.824219 L 300.539062 72.316406 C 306.976562 78.800781 312.828125 85.773438 318.101562 93.230469 C 323.375 100.691406 327.996094 108.535156 331.960938 116.761719 L 18.132812 373.175781 L 184.253906 373.175781 C 188.066406 373.171875 191.871094 373.054688 195.675781 372.816406 C 199.480469 372.582031 203.273438 372.226562 207.058594 371.757812 C 210.839844 371.289062 214.605469 370.703125 218.351562 370 C 222.097656 369.300781 225.820312 368.484375 229.515625 367.550781 C 233.210938 366.621094 236.875 365.578125 240.507812 364.421875 C 244.140625 363.265625 247.734375 362 251.289062 360.621094 C 254.84375 359.242188 258.351562 357.757812 261.8125 356.164062 C 265.277344 354.570312 268.6875 352.875 272.042969 351.070312 C 275.402344 349.265625 278.703125 347.363281 281.941406 345.355469 C 285.183594 343.351562 288.359375 341.246094 291.472656 339.042969 C 294.582031 336.84375 297.621094 334.546875 300.59375 332.160156 C 303.5625 329.769531 306.457031 327.292969 309.273438 324.726562 C 312.089844 322.15625 314.828125 319.507812 317.480469 316.769531 C 320.136719 314.035156 322.703125 311.222656 325.183594 308.328125 C 327.664062 305.433594 330.054688 302.46875 332.351562 299.425781 C 334.652344 296.386719 336.851562 293.277344 338.960938 290.101562 C 341.066406 286.925781 343.074219 283.6875 344.980469 280.390625 C 346.890625 277.089844 348.691406 273.734375 350.394531 270.324219 C 352.09375 266.914062 353.6875 263.453125 355.175781 259.945312 C 356.664062 256.4375 358.042969 252.886719 359.3125 249.292969 C 360.582031 245.699219 361.738281 242.070312 362.785156 238.40625 C 363.832031 234.742188 364.765625 231.046875 365.582031 227.324219 C 366.402344 223.601562 367.105469 219.859375 367.691406 216.09375 C 368.28125 212.328125 368.75 208.546875 369.105469 204.753906 C 369.460938 200.960938 369.699219 197.15625 369.820312 193.347656 C 369.941406 189.539062 369.945312 185.730469 369.832031 181.921875 C 369.71875 178.113281 369.488281 174.308594 369.140625 170.515625 C 368.792969 166.71875 368.328125 162.9375 367.75 159.171875 C 367.167969 155.40625 366.472656 151.660156 365.664062 147.9375 C 364.851562 144.210938 363.925781 140.515625 362.890625 136.851562 C 361.851562 133.183594 360.699219 129.550781 359.4375 125.957031 C 358.175781 122.359375 356.804688 118.804688 355.324219 115.292969 Z M 164.753906 157.246094 L 52.261719 23.78125 L 184.253906 23.78125 C 188.859375 23.777344 193.457031 23.964844 198.046875 24.351562 C 202.632812 24.738281 207.199219 25.316406 211.738281 26.089844 C 216.28125 26.859375 220.777344 27.824219 225.238281 28.976562 C 229.695312 30.128906 234.097656 31.46875 238.445312 32.996094 C 242.789062 34.523438 247.0625 36.230469 251.261719 38.117188 C 255.460938 40.007812 259.574219 42.070312 263.601562 44.304688 C 267.625 46.542969 271.550781 48.945312 275.371094 51.515625 C 279.195312 54.082031 282.902344 56.808594 286.492188 59.691406 Z M 184.246094 351.320312 L 79.417969 351.320312 L 340.460938 138.074219 C 345.574219 154.171875 348.125 170.664062 348.121094 187.550781 C 348.0625 277.855469 274.582031 351.308594 184.253906 351.308594 Z M 184.246094 351.320312 " fill-opacity="1" fill-rule="nonzero"/></g></svg>