<?xml version="1.0" encoding="utf-8"?>
<!-- Generator: Adobe Illustrator 26.2.1, SVG Export Plug-In . SVG Version: 6.00 Build 0)  -->
<svg version="1.1" id="Layer_1" xmlns="http://www.w3.org/2000/svg" xmlns:xlink="http://www.w3.org/1999/xlink" x="0px" y="0px"
	 viewBox="0 0 512 512" style="enable-background:new 0 0 512 512;" xml:space="preserve">
<g>
	<g>
		<polygon class="st0" points="95.25,452.68 142.43,395.8 142.43,429.69 194.81,429.69 194.81,332.65 328.71,171.2 412.06,171.2 
			144.64,493.64 		"/>
		<path d="M411.17,171.62L144.58,493.05l-48.74-40.42l46.16-55.66v32.3v0.84h0.84h51.54h0.84v-0.84V332.8l133.68-161.18H411.17
			 M412.96,170.78h-84.45L194.39,332.5v96.77h-51.54v-34.63l-48.19,58.1l50.03,41.49L412.96,170.78L412.96,170.78z"/>
	</g>
	<g>
		<polygon class="st0" points="46.8,394.82 46.8,68.82 8.8,68.82 8.8,4.66 500.96,4.66 500.96,68.82 496.97,68.82 455.5,118.82 
			372.15,118.82 413.62,68.82 110.96,68.82 110.96,394.82 		"/>
		<path d="M500.54,5.08V68.4h-3.37h-0.4l-0.25,0.3l-41.22,49.7h-82.26l40.32-48.62l1.14-1.38h-1.79H111.38h-0.84v0.84V394.4H47.22
			V69.24V68.4h-0.84H9.22V5.08h37.16h65H500.54 M501.38,4.24h-390h-65h-38v65h38v326h65v-326h301.35l-41.47,50h84.45l41.47-50h4.21
			V4.24L501.38,4.24z"/>
	</g>
	<g>
		<polygon class="st0" points="143.27,170.36 113.14,170.36 113.14,119.66 370.36,119.66 328.31,170.36 193.97,170.36 
			193.97,332.34 143.27,393.47 		"/>
		<path d="M369.46,120.08l-41.35,49.86H194.39h-0.84v0.84v161.41l-49.86,60.11V170.78v-0.84h-0.84h-29.29v-49.86h29.29h51.54H369.46
			 M371.26,119.24H194.39h-51.54h-30.13v51.54h30.13v223.86l51.54-62.14V170.78h134.12L371.26,119.24L371.26,119.24z"/>
	</g>
	<g>
		<polygon class="st0" points="181.73,474.8 434.22,170.36 413.85,170.36 455.9,119.66 503.2,119.66 503.2,170.36 500.09,170.36 
			220.75,507.17 		"/>
		<path d="M502.78,120.08v49.86h-2.49h-0.4l-0.25,0.3L220.69,506.58l-38.38-31.83l251.66-303.43l1.14-1.38h-1.79h-18.58l41.35-49.86
			H502.78 M503.62,119.24H455.7l-42.74,51.54h20.37L181.13,474.86l39.67,32.9l279.48-336.98h3.34V119.24L503.62,119.24z"/>
	</g>
</g>
</svg>
